<svg xmlns="http://www.w3.org/2000/svg" viewBox="0 0 448 512">
  <path fill="currentColor" d="M72.971 229.029L248.686 53.314c6.248-6.248 16.379-6.248 22.627 0l21.213 21.213c6.248 6.248 6.248 16.379 0 22.627L146.627 256l145.899 145.827c6.248 6.248 6.248 16.379 0 22.627l-21.213 21.213c-6.248 6.248-16.379 6.248-22.627 0L72.971 282.971c-6.25-6.248-6.25-16.379 0-22.942z"/>
</svg>


<svg xmlns="http://www.w3.org/2000/svg" viewBox="0 0 448 512">
  <path fill="currentColor" d="M400 296H48c-13.255 0-24 10.745-24 24s10.745 24 24 24h352c13.255 0 24-10.745 24-24s-10.745-24-24-24zm0-136H48c-13.255 0-24 10.745-24 24s10.745 24 24 24h352c13.255 0 24-10.745 24-24s-10.745-24-24-24zm0-136H48C34.745 0 24 10.745 24 24s10.745 24 24 24h352c13.255 0 24-10.745 24-24S413.255 0 400 0z"/>
</svg>